<?xml version="1.0" encoding="utf-8"?>

<!DOCTYPE svg PUBLIC "-//W3C//DTD SVG 1.1//EN" "http://www.w3.org/Graphics/SVG/1.1/DTD/svg11.dtd">
<svg version="1.1" id="Layer_1" xmlns="http://www.w3.org/2000/svg" xmlns:xlink="http://www.w3.org/1999/xlink" x="0px" y="0px"  viewBox="0 0 175 74.75" enable-background="new 0 0 175 74.75" xml:space="preserve">
    <rect x="65.945" y="9.192" fill="#D4A92F" width="3.177" height="18.218"/>
        <rect x="56.692" y="7.393" fill="#D4A92F" width="21.913" height="3.177"/>
            <polygon fill="#D4A92F" points="55.165,2.092 55.165,5.666 85.379,5.666 67.514,34.327 49.71,5.666 55.165,5.666 55.165,2.092  43.242,2.092 67.514,41.039 91.785,2.092 "/>
                <polygon fill="#D4A92F" points="116.257,2.092 114.93,5.666 123.896,5.666 106.032,34.327 101.69,27.336 99.602,30.759  106.032,41.039 130.305,2.092 "/>
                    <polygon fill="#D4A92F" points="103.656,2.092 101.887,5.666 111.124,5.666 93.258,34.327 88.972,27.298 86.886,30.797  93.258,41.039 117.531,2.092 "/>
                        <polygon fill="#D4A92F" points="90.023,2.092 88.921,5.666 98.336,5.666 80.473,34.327 76.06,27.349 73.937,30.794 80.473,41.039  104.743,2.092 "/>
                            <path fill="#FFFFFF" d="M22.351,60.718v9.63c0,1.318,0.2,1.475,0.773,1.913h-4.414c0.574-0.438,0.774-0.595,0.774-1.913V49.667 c0-1.321-0.2-1.477-0.774-1.916h6.594c6.161,0,8.713,1.977,8.713,6.78c0,2.199-1.662,5.056-5.217,5.747l4.987,10.069 c0.888,1.444,1.033,1.506,1.519,1.913h-3.754l-5.531-11.543l-1.158-2.092c2.15,0,6.287-0.108,6.287-4.125 c0-2.669-1.461-4.553-5.846-4.553h-2.953V60.718"/>
                                <path fill="#FFFFFF" d="M139.111,60.718v9.63c0,1.318,0.201,1.475,0.777,1.913h-4.416c0.571-0.438,0.773-0.595,0.773-1.913V49.667 c0-1.321-0.202-1.477-0.773-1.916h6.592c6.164,0,8.713,1.977,8.713,6.78c0,2.199-1.661,5.056-5.215,5.747l4.987,10.069 c0.888,1.444,1.03,1.506,1.519,1.913h-3.756l-5.53-11.543l-1.157-2.092c2.15,0,6.287-0.108,6.287-4.125 c0-2.669-1.462-4.553-5.848-4.553h-2.953V60.718"/>
                                    <path fill="#FFFFFF" d="M37.89,49.652c0-1.321-0.201-1.477-0.773-1.916h13.098v3.202c-0.286-0.378-0.372-1.005-1.948-1.005h-7.51 v7.755l5.192,0.112c1.49,0,1.547-0.282,1.892-0.722v3.642C47.554,60.344,47.554,60,46.035,60l-5.278-0.114v10.178h7.51 c1.547,0,1.576-0.562,1.948-1.005v3.202H37.117c0.572-0.439,0.773-0.595,0.773-1.913V49.652"/>
                                        <path fill="#FFFFFF" d="M53.337,49.541c0-1.318-0.201-1.477-0.773-1.916h4.413c-0.574,0.439-0.774,0.598-0.774,1.916v20.523h5.66 c1.55,0,1.608-0.629,1.949-1.006v3.202H52.564c0.572-0.439,0.773-0.595,0.773-1.913V49.541"/>
                                            <path fill="#FFFFFF" d="M66.525,49.541c0-1.318-0.2-1.477-0.773-1.916h4.414c-0.574,0.439-0.774,0.598-0.774,1.916v20.523h5.271 c1.547,0,1.604-0.629,1.948-1.006v3.202H65.752c0.573-0.439,0.773-0.595,0.773-1.913V49.541"/>
                                                <path fill="#FFFFFF" d="M79.484,51.176c0-2.604-0.2-2.763-0.773-3.202h13.097v3.205c-0.285-0.378-0.373-1.008-1.949-1.008h-7.508 v7.351l5.522,0.114c1.491,0,1.55-0.282,1.894-0.724v3.642c-0.289-0.375-0.289-0.721-1.806-0.721l-5.61-0.114v10.345h7.508 c1.548,0,1.576-0.562,1.949-1.005v3.202H78.711c0.573-0.438,0.773-0.595,0.773-0.63V51.176"/>
                                                    <path fill="#FFFFFF" d="M95.012,49.895c0-1.317-0.201-1.476-0.775-1.916h6.106c4.069,0,8.513,0.537,8.513,5.685 c0,3.548-2.322,5.168-4.156,5.48v0.065c2.062,0,5.476,1.743,5.476,6.296c0,6.34-6.02,6.756-9.832,6.756h-6.106 c0.574-0.439,0.775-0.595,0.775-1.913V49.895 M97.885,58.778l-0.009,11.285h2.467c3.267,0,6.964-0.416,6.964-4.685 c0-4.146-3.248-5.769-6.861-5.769c-1.121,0,0-0.668,0-0.668c4.412,0,5.429-2.077,5.544-4.998c0-3.671-3.039-3.765-5.646-3.765 h-2.467L97.885,58.778z"/>
                                                        <path fill="#FFFFFF" d="M122.727,47.626c-6.748,0-11.166,6.049-11.166,12.661c0,6.609,4.635,12.464,11.071,12.464 c6.779,0,11.039-6.249,11.039-12.464C133.671,53.575,129.193,47.626,122.727,47.626z M122.664,70.269 c-4.977,0-7.992-5.024-7.992-10.049c0-5.256,3.079-10.113,8.021-10.113c4.603,0,7.869,4.661,7.869,10.113 C130.562,65.112,127.639,70.269,122.664,70.269z"/>
                                                            <path fill="#FFFFFF" d="M168.48,61.052l-2.686,0.015c-1.521,0-1.521,0.346-1.805,0.724v-3.642c0.342,0.439,0.402,0.721,1.89,0.721 l5.918-0.016v-0.102V70.4c-2.024,1.343-5.142,2.347-7.894,2.347c-6.863,0-11.407-4.963-11.407-12.475 c0-7.613,4.976-13.014,11.407-13.014c3.88,0,5.339,1.845,6.367,1.845c0.299,0,0.465-0.134,0.762-0.368v4.729 c-0.297-0.302-2.619-3.688-6.665-3.688c-4.938,0-8.556,4.427-8.556,10.43c0,5.533,3.15,10.028,8.356,10.028 c1.494,0,2.886-0.337,4.312-1.04V61.052"/>
                                                                <path fill="#FFFFFF" d="M16.94,47.648v3.17c-0.43-0.472-0.459-0.973-1.92-0.973h-4.242l0.002,20.502 c0,1.318,0.199,1.474,0.773,1.913H7.14c0.573-0.439,0.775-0.595,0.775-1.913L7.914,49.846H3.728c-1.52,0-1.547,0.501-1.978,0.973 v-3.17H16.94"/>
                                                                </svg>
